<svg id="visual" viewBox="0 0 900 600" width="900" height="600" xmlns="http://www.w3.org/2000/svg" xmlns:xlink="http://www.w3.org/1999/xlink" version="1.1"><rect x="0" y="0" width="900" height="600" fill="#F1F5F9"></rect><defs><linearGradient id="grad1_0" x1="33.3%" y1="100%" x2="100%" y2="0%"><stop offset="20%" stop-color="#f1f5f9" stop-opacity="1"></stop><stop offset="80%" stop-color="#f1f5f9" stop-opacity="1"></stop></linearGradient></defs><defs><linearGradient id="grad2_0" x1="0%" y1="100%" x2="66.7%" y2="0%"><stop offset="20%" stop-color="#f1f5f9" stop-opacity="1"></stop><stop offset="80%" stop-color="#f1f5f9" stop-opacity="1"></stop></linearGradient></defs><g transform="translate(900, 600)"><path d="M-297.5 0C-291.5 -55.1 -285.5 -110.2 -257.6 -148.7C-229.8 -187.3 -180.1 -209.2 -133.5 -231.2C-86.9 -253.3 -43.5 -275.4 0 -297.5L0 0Z" fill="#FFD900"></path></g><g transform="translate(0, 0)"><path d="M297.5 0C268.4 39.5 239.4 78.9 218.2 126C197.1 173.1 183.8 227.8 148.7 257.6C113.7 287.5 56.8 292.5 0 297.5L0 0Z" fill="#FFD900"></path></g></svg>